<mxfile host="app.diagrams.net" modified="2023-06-02T09:18:21.114Z" agent="Mozilla/5.0 (Windows NT 10.0; Win64; x64) AppleWebKit/537.36 (KHTML, like Gecko) Chrome/113.0.0.0 Safari/537.36" etag="_kzUQHMoBg0dzOtOf7nS" version="21.3.7" type="device">
  <diagram id="R2lEEEUBdFMjLlhIrx00" name="Page-1">
    <mxGraphModel dx="1900" dy="573" grid="1" gridSize="10" guides="1" tooltips="1" connect="1" arrows="1" fold="1" page="1" pageScale="1" pageWidth="850" pageHeight="1100" math="0" shadow="0" extFonts="Permanent Marker^https://fonts.googleapis.com/css?family=Permanent+Marker">
      <root>
        <mxCell id="0" />
        <mxCell id="1" parent="0" />
        <mxCell id="C-vyLk0tnHw3VtMMgP7b-1" value="" style="edgeStyle=entityRelationEdgeStyle;endArrow=ERzeroToMany;startArrow=ERone;endFill=1;startFill=0;exitX=1;exitY=0.25;exitDx=0;exitDy=0;entryX=0.009;entryY=0.609;entryDx=0;entryDy=0;entryPerimeter=0;" parent="1" source="ChzIYTqEQV41GQ-VPb2i-10" target="ChzIYTqEQV41GQ-VPb2i-8" edge="1">
          <mxGeometry width="100" height="100" relative="1" as="geometry">
            <mxPoint x="105" y="121" as="sourcePoint" />
            <mxPoint x="185" y="151" as="targetPoint" />
          </mxGeometry>
        </mxCell>
        <mxCell id="ChzIYTqEQV41GQ-VPb2i-1" value="" style="shape=image;verticalLabelPosition=bottom;labelBackgroundColor=default;verticalAlign=top;aspect=fixed;imageAspect=0;image=data:image/png,iVBORw0KGgoAAAANSUhEUgAAAQIAAAFlCAYAAAAAvuayAAAAAXNSR0IArs4c6QAAAARnQU1BAACxjwv8YQUAAAAJcEhZcwAAEnQAABJ0Ad5mH3gAABYYSURBVHhe7d0/bONmnsbxnw+b6opMtfUhkWYBQ1WKBLCrFJODNCm0AeJ2FkFgb5qVGhcDuDsDKSaFfMUO7Coutoiye6cmFpIUqcbApgi20BlYyztJE2w7abfxvS/5UnxJkaL+kOJL6fsJhBFJiaKwy0cvSevRzr0i2Fo7Ozvev/r/BvZ9bJedjz/+mP/VgS3nBcFnn31mJgFso38z/wLYYgQBAIIAAEEAQCEIABAEAAgCAEpqEHzbfSAPHqjbe8/lpZnneynP3zPLut+aeQCqjBEBAIIAQJ5B8G3XP1ywbpEjh/jyyCHHt9I18997/ty/P3VIAqAo+QSB3sk//NxMTHv5/L3p5d8/lbcSdvbvnz6V9DUBKEIuQfDy7sbc+518+eqVvDK33iM16+Vz+f3T7/2lXwbLvlSPVFQY/Hf8fOPbn8oP+jHffCJvmFkAipVLELxR2zX3PpcPzRB/cljwj7+LHwNq6YfmsODBh5NP/Zu76Jjg7d/+JwEArFl2EHz/d/mHuZvqUS/8lDf0Tv/ec47ygSpIDYJHj4Pd+nN5Zu3QL5//XsxIX373WI/9A4+k5w37f5BP3/bnfP+/X8vLN38jZtI6NAhv33zC5z9QtvQRwaM/hDv007fMkP6BvBWkgDqW/4PJAe9koFn+4MFbk6DwhvlvfCLHJlPCQwNz48oA4IQZhwZvyCffvJIv7fG+8fanP2SezNOPCT7tH/VeyQ9BqgBwDlVlAPK5agCg2iYjgsFgYGYB2CbtdjsaBHoGALe8/vrr5l7+Li8vk4Mgzxf95ZdfCn0TwKYreh8KgoBzBAAIAgAEAQCFIACQHgT6JMUiNwDVtfCI4KeffpLvvvtuctPT1TOUo50dORqaySl6+b6c3ZlJYMMtFAQ//vij/PnPRzIe/3Zy09N6frU05fz+Xs6bZhLYcgsFwc8//yy/+tVf5fhY5E9/Eu9fPa3nA6iuhYLgtddek/v7f5d//Uvkb38T7189recvJz4Ej00Pj2RHDeH925FaGriTs/1gfsLzh2eyr5ftn6lHJpke+g+PgvXtyP7ZrZkLbIeFguCdd96Rev1c/vjHX3vT+l89refnT+2sLZErNYS/927nakBvlhzVpdu48uePD6T/xN7hr6V7KnKpl73oSM3MneXubF9ao56MzWtdSl8uzDJgGyx8svD999+Xv/zloZkq2khupz7ShzK42JPesYmF2mNRUSBfTR6nll3OFwC+oTzrSuQ5tc6JHJr7wDZYOAhsX3/9H/Luu++aqbzpE3onclP3h+vRM/zqU9/M39lRo4NrM3tpDXk4f3IAG2elIHjy5P/kiy++MFNF8M/u399fibTsY3r1qT/2h/H+7YV0VtqRk0YewPZYKgg++OAD0aVG//znf8lHH31k5i6jLrt719I34/q7s9OUY3P/cTdjfb8p7UM1IniW+kcAC5pe3/CoxTkCbJWlgkDv/G+++T8rhoBWk87JoVx3694w/4k62g+PzfWZ/XD43z8YT677N8+v5PCiZZapW+rVgfk0z8fSG4XrG7TV+s0yYBvQRwA4rOh9aEv6COxRRXhL/9NiYDtteBAEJxujN/60GIja8CAAMA+CAABBACDhqgEAt6zjqgGXDwGHcfkQwNoQBAAIAgAEAQCFIABAEBTH/56D/72G6Y5EwCUEQWGoTEd1EAQAyg6C+JA5Nl1Ynbk25zrUzRveW9sS+RpzZBvtZRwOoDocHhGoHanAOvO513F1KBcttZMP2v5jvekglFSYDHYnNejRZUB1OH5oUFSd+QLraLblUE8Hj/Wmg+2qSefceq3IMqA6HA6CouvM81iH/+MowWHBzg6lp6gmx0cERdaZ57CO4ZHU+wfhoYHaTkpPUUUlB0FZdeZ5V6L70rcfcFvJQVBenXkulejNY+lJV+pmHdHtB6qDPgLAYfQR5MIeVYS36IlHABseBNSZA/PY8CAAMA+CAABBAIA6c8B567hqwOVDwGFcPgSwNgQBAIIAAEEAQCEIABAExaCvENVCEAAgCACUHgRmCG1Vh0dry5XUunAlre48Yf7waEbV+J16fWvF+rGT50cKS2Lbay2zn7N/dmvmAtXgwIjAqg5Xt3FvJK3JDjarLlztlIl158nzm2313IHZ2e/UjronYUXaV32R3bp//2xfWqPe5DWvGl2pR9LH2l5Tlx5/zqX0qSxDpTgQBFZ1uFLrnMjhdVAtnlUXnlYdnjC/vit7o1svYLwd/+BATAmijG/U5GP9KkN51pXI9viVZgMTPlp0e5Oe470Hcx+oAgfPEeiiUnNXSa8LT6s7T5k/+e2CO/mq35B256E0vB1c/8ZBQx5O9mz7fiDrtwqSngNUh4NBMJaba7NjZdaFp9WdJ82vycOGbkJW62+01SN0k7HawYe3MjrU04GknT5rR88KCsBtbpwjsGrFh+oA/yKyY4bmqzu3Refr8wSj01MZmfMBzXZDuq2uNNrBq5mac+vnz2Ztj2+6Gt17jrkPVIEb5wh2B5Phv3fSbdJbPqsuXJ/B9+dH687T5ivNtqhBgTkfoOjzBuo/kwue5rk5QWjWEdmeFM3zsfRGYTX6oM0PnaBaSu4j0DvtqeyOl/mlImDz0UcAYG0IAgBlB4E+u89hAVA2RgQACAIA1JkDzlvHVQPqzAGHcfkQwNoQBAAIAgAEAQCFIADgQBAE/YKRbsAk+gtKQbeAfR/AqkoOgjs5O72Qw6v7Sf8fgPUrOQh0G1G0DwDA+pUYBHp4r5t8rqWr+wW9csH4kH/ZQwDzPKsmPVJEnFqRnvI86/GR9egRzX6wHg5VUF0lBoH+5qFu8tmT3lgdGmS0AC3Oqh2P1KDPqkjX4s9TO/mgnfjY4VFduo0rf9n4QPpWxRlQJeWfLCyMVTseqUHPqkiPP09NHwfVafZjdfuxtWzSkuxPAlWywUGQLr0ifVHmsMZbjxodXJvZQMVsXxBkVqQvwhzWTNZFyQqqybEg8OvHJz9Fllpfnp/lX2O6xhyoKseCQB2/nxzKdbfuDbej9eU5mVmRvhj/59DCGvPsP4oC3EQfAeAw+gjmoq/7Byfrwlv0Wj+ALBUPguA3DqO33P8kAdhw23fVAMAUggAAQQCAOnPAeeu4asDlQ8BhXD4EsDYEAQCCAABBAEAhCABsaxD431HgOwmAb0uDwP+OAt9JAHwcGgAoOwjideWx6UjtuN00nFYjHqsjTy0KsV8n9hx1m11hrhcFr70j+2dnsfcAVI/DIwK1g7ZEriZfLz5XA3qzZGaNuFVHPvevJ81fYa6LT1uj3qTz8FL6hdepAUVz/NDArhkPZNWIW3Xkc7Oek1Fh/qwrkfXXOif516kBa+ZwEOgTeidyY+rCo8PzMmvEG/KQpmJsGMdHBEED0ZVIyz4OL7NGPGmUAlRbyUEwb325/7ibsb5fZo349GsPj1b5gRTADSUHwaz6cn02Pxz+9w/Gk+v+ZdaIN8/H0huFrz1or/IDKYAb6CNY1d2Z7Ndv5MS6qgHkhT6CXNijivCW358W38nZk65cH7YJAVTahgdB/nXn9h8TeVcs9N8z8LfKqLgND4L8Nc9jwUIIYAMQBAAIAgDUmQPOW8dVAy4fAg7j8iGAtSEIABAEAAgCAApBAGCbgsDuKcyD/z2G9O8t5P16QHEYESyNSnRsDoIAgBtBMLsefM7q8oRhenS9t2ZuIM9KdN/s1wPcVXoQZNWDz11dvmDteN6V6NSco8pKDoKsevAFqssXqh3PuxKdmnNUmwOHBln14MtWlxe13jTUnKO6HAiCrHrwZavLi1pvGmrOUV0lB0FWPfiy1eVFrTcNNeeottJHBFn14MtWlxe13jTUnKPK3OsjoB4cmNjSPgIX68H9PyWejBzMLb9KdKB8pQeB+/Xg+VeiA65x4BxBbCdjDwPWzrFDAwBlIAgAUGcOuG4dVw2oMwccRp05gLUhCAAQBAAIAgAKQQCAIAgtUj++yGMB9xEEAAgCAKUHQXyIHZseHlnfTAwbir2vK69URe7Lqh+PfDMyaV3jsEo9un1AtTg8IlA7dUvkavLNxLCoJI8q8qz68fjyq0ZX6pESAut11G3cG0lrxZYjoCyOHxokFYLmUUWeXXceX+5Xmw2sT/3o63jPv7a3A6gOh4NAF4KcyI2pHI82AqlP45WryLPqx5OWz2oqrsvunrkLVIzjI4KgHehK1LjbOheQRxV5Vv140vJZ4TGWm2t+2wDVVHIQ6E/Ra+mb8fTd2WlKBbj/uJuxvp9HFfmcdefWuQdveaRLMeH5TnUtAvMrOQhq0jk5lOtu3RvmP1FH+/ZxelgaWpf+wXjSE5hHFXl23bk5QWiWeycOIzVqalSyO5g8f3o5UB30EQAOo48gF/aoIrxRRQ5EbXgQUEUOzGPDgwDAPAgCAAQBAOrMAeet46oBlw8Bh3H5EMDaEAQACAIABAEAhSAAQBAki3UnAhuOIABAEAAoPQjiQ/DYdGF15rHHTa3fsOrK92PHCelV59Prjn7tOW3bgfI4PCJQO1SBdebZdeTW8ivdovRsEhQLVZ2r5160wpCZve1AORw/NCiqzlzLqiO3ljfbcjjZlgWrzmPPnb3tQDkcDoKi68zjFqkjX7Tq3FbEtgOrcXxEUGSdedwideSLVp3bith2YDUlB0FZdeZadB3z15HPU3WeJq9tB/JVchCUV2fufTIvWUeeXXWeLp9tB/K1pX0EOmROZXfMsBxuo48gF/aoIrxRZw5EbXgQUGcOzGPDgyCNDggOC4DAlgYBABtBAIA6c8B167hqQJ054DAuHwJYG4IAAEEAgCAAoBAEAAiC+ZgewtSvCWYtB9xGEAAgCACUHgTxIXVsurA6cyWy7umvJtt15ftnt2ZuKH152jbMqDFPe5+p7x/Il8MjArVDFVZnrnbKwe6kjjxeOR6vK7+UfqRCLWt50jakb3Pa+0x//0DeHD80KKrOvCadc+sxGXXlXtW5uZ+9XItvQ9Y2pzUgz9uMDKzG4SAots5cf6qHw+5W7BM9q5F43sZiW9o2p73PWe8fyJfjI4KgYSjnOnN17F3vH4SHBmr90U/0rE/iZT6pZ21z2vtMmw/kq+QgKLPOPBR93en1e3Xl5n728iTzbrP9Pm1p84F8lBwEJdWZN4+lJ2EdefR19frH0huF6x+0oyOGrOVJ0rc57X2mv38gb/QRAA6jjyAX9qdqeOPEGxC14UEQnGyL3hhiA1EbHgQA5kEQACAIAFBnDjhvHVcNuHwIOIzLhwDWhiAAQBAAIAgAKAQBAIJgOfo7DEE/gH0fqCaCYG0IDLiLIABQdhDEPyVj0wXVmesq8vCryLHXvFPPDRZmVJ4nS9g2vU6vF9H0FvI9aDjG4RGB2kELqjNvtg/lYmB2xrtbXScY1qV91RfZret7MyvP0yRuW60jL7xeRNNbyPeg4RjHDw2SSkJzqDOv78re6NYLD2/HPziQoBBwfKMmH+tnz6o8T5O1bYCbHA6CWXXeZojtDb+XqDOf7KB38lW/Ie3OQ2lcDNRurHfksKp8duV5mhW3DSiB4yOCgurM1ef8w4ZuBR7LTaOtXkW3DKtP++GtjA71tJJZeZ5m1W0D1q/kICivzlyfJxidnsrIOx+gpxvSbXWl0U4+fk/fNls+2wasW8lBUFKduaaO+dWgwJwPUPR5A/WfyQW1fHbleZr0bWvKcU+4agAn0UcAOIw+glzYo4rwxgcyELXhQUCdOTCPDQ8CAPMgCAAQBACoMwect46rBlw+BBzG5UMAa0MQACAIABAEABSCAEAVgyDWMbgQ/7sH6d81WGXdQHVt2YjA/+4B3zUAojg0AFB2EJiheEL9uK4cn3x1eGbxSFq1eZLpob/9Ovtnt2YusF0cGBFM14/r0tDWqDfpC7xqdKWecmA/u9p8tvjrXEp/zoJSYLM4EATx+vGhPOtKZJ5f/6VbhuNWqQ+ffp1a52TOglJgszh6jiCsFA+l/abAKvXhSa8DbB9HgyBpp0/baVepD8/6wRJgOzgYBKYS3DrWHx615CL4vYGIVerDp5/rvY65D2wTJ0cEzXNzgtCczfdO6KVc/F+l2rx5PpbeKHzuoD3vj5gAm4U+AsBh9BGsxP9T4skowdyoMQeSbWgQUGMOLGJDgwDAIggCAAQBAOrMAeet46oBlw8Bh3H5EMDaEAQACAIABAEAhSAAQBD4smrOgc22pUEQLzGl5hzbjREBgLKDIP7JHJseHllfIz5SSwNpFebm+Qn16BN3epluIjJdh97xgP26sXWom/+QcFuihxCL1KkDbnJ4RKB2yJbI1eRrxOeTqrLZFeZqB4/Vo0fUOvLiXjcRma7DxOMBax1Xh3LRUjv5oO2/njcdhtIqdeqAKxw/NEgqF82qMI/Xoy/DWkez7YdG8HredLBdq9SpA+5wOAj0CbwTuTFV5dHhuBnWe8PxRSvM8+bStgDLcXxEEDQNXYm07ONv9Sm8dIV53lzaFmA5JQdBXXb3rqVvxtJ3Z6cpdeL+427G+v4qFeZ5c2lbgOWVHAQ16ZwcynW37g2tn6gj7LBOXJ+9D4fc/YPx5Dr/KhXmvqYc98S6arC81bcFKB99BIDD6CPIhT2qCG8rDgKAjbPhQUCtOTCPDQ8CAPMgCAAQBACoMwect46rBlw+BBzG5UMAa0MQACAIABAEABSCAABBAIAgiLFLTLMs8ljAbQQBgLKDIP6pGpsuos48EF93Ys15/HHmK8yZlejavO8FKJ/DIwK1IxVRZ+5JWHdizbkKnMGujIPHBVXmc1Wi29LfC+ACxw8NiqwzT1p3XE0659a6IlXmi1r2eUDxHA6CIuvMZ6076u5s37yOvunDgWXM/3pAGRwfERRZZ562bos6rq/3D8JDA+9wYFlzvB5QkpKDwIU6c3vds6Vvn7bMewHcUHIQlFVnnrbuWM1581h60pW6eWx0++KV6Mu9F8AF9BEADqOPIBf2J3F442QdELXhQRCcoIveGJYDURseBADmQRAAIAgAUGcOOG8dVw24fAg4jMuHANaGIABAEAAgCAAoBAEAggCAC0HgFYFaXwriG0HA2pUbBDoE6n05sNqGxru3QhQA61X+iGDvQB5bNWO1TkfsLwcOj8LRwr7V72XPjxaT6K8e7ydUmqdVoAMoNwi8BuKu1FMahnRxaGvUM52BYzl5mDT/Xq4aah2RQ4rpSvPZFejAdit5RFCTzgt1OHDQ9+vAYp/sz7piVZPXpNn0dunY/KC6bGAdUsQrzbMq0IHtVv6hgVLrvPDPD3iBYP8KUEMehnuzJWl+1u8GrFqBDmwuJ4IgUOtcSm/vQgaTJEjbuZPmp4VGII8KdGAzlRsEw6PICUCRsdxc78luXd+P15bfyXCoH2vmW8f4w6OWXBy2IycZo/KuQAc2S7lB0DyWg75f/+3f9A8Ehp/UzfOx9EZBbXldBuaov3luThCa53knDjOKCFevQAc2F30EgMPoIwCwNgQBAIIAAEEAQCEIAFBnDris6KtuiXXmT548MYsBbAMuHwKYIAgAEAQACAIACkEAgCAAEPs7AgDbJ/J3BAC2lxcE5j6ArSTy/0rw6DZcOTbcAAAAAElFTkSuQmCC;" vertex="1" parent="1">
          <mxGeometry x="-310" y="370" width="258" height="357" as="geometry" />
        </mxCell>
        <mxCell id="ChzIYTqEQV41GQ-VPb2i-3" value="" style="shape=image;verticalLabelPosition=bottom;labelBackgroundColor=default;verticalAlign=top;aspect=fixed;imageAspect=0;image=data:image/png,iVBORw0KGgoAAAANSUhEUgAAAQEAAAB+CAYAAAAk76RdAAAAAXNSR0IArs4c6QAAAARnQU1BAACxjwv8YQUAAAAJcEhZcwAAEnQAABJ0Ad5mH3gAAAmPSURBVHhe7d0/bBNpGsfxJ6elugKqq09ggxRRpQCJVBRk5UARkKBNhFB8NJc0KSKlOySKbOFssTlTkWILYHfPDbGAgiqRjgJtwUUCh0CDtg3tNr73nXln/M4fO47jYMfP9yON7HnfydgU7zPvvMY/j927d68pANQa29/fpwgAiv3FPQJQiiIAKEcRAJSjCADKUQQA5SgCgHIUAUA5igCg3HAUgb11mTpzRs6cWZRXrqlvjvPcwAgYiiKw9+I/8sY977fjPDcwCtoXgfgK2toW/Uvpq8VEn92m1vdcp7Un61Ouz/5h4vjoqhweM7EcDdPHctv2T62bHvsn0fHe5voSct9r53MDCOUWgb31KTkzsdz2ChoMztuP3V7Lm+WJcMCnPb6dOt4MyF4H45tlmfBe46D3CqCznCLwSn6Mrp6XHsrb/X3Zt9vbh3LBtpmr7mo0nueehX1me/vwUtj2eFUSE4LAnDwLjnsr0WHy5r18lLNy/6X3t9FxL++bHpFrFffa0fZsLjzs8XM3k+j0XjufG0AoWwRePTfXaeuSPPy3N2DO3pf718zjx/fuqmv6/2kbQme/v2larDfy/mPwpGXuuoRHnpXvb0aDsgvpW454NrEju8H9wgHvFcCBhmJhMJctANGgj67y0UwAQN9ki8C5C/EVffkf3n27uQ1Yt3Nwv/9H7948XoW/JBfOBU964K7wxt7uTvjEFgA3hX/1PJoJOAe914TWuQG0ZIuAmUovRRdcuwgXTcUnluW9bfP77YKf649X4eeW5P4hb7rPFsbdMzOYJ8z5ptZFojbvPazupG4lDnqvRt65qQVAS+7tQLAg12Hq3a5/7plpr/RwM36tIpnTpdvmnsnLpWhAtxz0XnPPDSBGvBig3PAuDAL4JoKZQK1Wc7sANJmZmWkVAbsDYPSdPn06eNzY2MgWgaizH75+/drX8wE4On9cRkWANQFAOYoAoBxFAFCOIgAol1sE7OLBYTYAJ9ehZgKfP3+W169fx5vd16ku5bExKdfdbobtn5S1XbcLDLGui8CnT5/kl1/K0mjcjDe7b9uHRz8GXzfnKEm12ZRqye0CJ1jXReDLly/y3Xf/laUlkZ9/luDR7tt2ACdX10Xg1KlT0mz+Vf78U+T33yV4tPu2/Sjq5TEZM1Nru016l1+/fWxyTbye8EpdX5NJ1x9My3ft/rQ8km1ZLJr2aK5eL7fOEx3rSbx+uZx/jozsbCH57/jgWoHh13URuHz5shSLVfnpp78F+/bR7tv2Xu2uTcr0u4o0zNS62WzIyvm89qZsXlyUYmJAmkH6QGTD9m/Oy6PpstQLC7LV3JR5uSKVhmkP5uq7slYbj88THxueJPv6M0s55zhY+v1uyFNTSICT4VALgzdu3JBff3Uj9cjqsrooUtlYkEKwX5BSyT5Lt5s78KoZmI9q8eAVO0ij/tKMGbTv5EPuPXxBFqqt8ySPbff6h5V9v4WFFfM6wMlwqCLge/Hi73L16lW316uLcj533OW1txvondmrdDRNHwum+r52r39Y/ToP8O31XARmZ/8nT548cXu9ajew89p7GGj1shSf3mndDgRTfV9vhSWrX+cBvr1DF4Fbt27JDz+I/PHHv+Tu3buutRclmZk39/ar8R261Ot2JLn22dZiYL1sruDzM6bnaHbXHngzgXavf1jp87j3654Dw+7QRcAO/HPnfjtiAQiVqg2pvJt2U/Wi1NxddanqFgPdND5YdOtqka4kSxVpreyXlqQirfPMyp3ETCD/9VPn6ELyPGNSm0nPOIDhRZ4AoIg/LskT6Ir9/wDh1d3fupwgACcCRaCj8L8Hh4uKrY3/LoxRQhEAlKMIAMpRBADliBwHlEl/OsBHhIAifEQIIIMiAChHEQCUowgAylEEAOUoAgnhdwXafzegmyRi4GRRUgTCwe0HmeYjShz6jHwRCOPFajJeueJaAPgGWATSU+vUfiIqvJUQbBOA1iaj9py/j6LIXUx5YWFLms2qXA8POkB2uk+UOEbdkM4EzGCcFtmMv75bNRN111MuyuLFzbC9cUeeejFkiSjyLS9luEdEiUODIb4dyAvvrEvt0RWpLLmSULgupgzI8/g4L4r8yIgShw5DWgTsAt2K7NicPzMNT67Wm6u9a7e5gIvbrvlYECWO0TfEM4Eo1WdTZNq/T3e/DuSm6M3mliwc20AlShyjb4BFoCjjV7blqZvLJ+PAfeFxOw37PBvvfXyIEocOAywCBVlYmZftxWIwtU/GgdtV+taU/+mdRvzZffiTZK147+SPlfYXUeLQgDwBQBHyBGL+TKO1ESUOjZQWAaLEgYjSIgAgQhEAlKMIAMoROQ4ok/50gI8IAUX4iBBABkUAUI4iAChHEQCUowgAylEEEsLvFBA5Dk1GvgiEacPRl4T8wNI8RI5DnxEvAnVZ3VmJvyDUqLyTab4qCCQMsAikp9ap/b5Ejpsru3dZL1y/I1fefegQQpKd7hM5jlE3pDMBMxiPI3K8sSPbF893nUZM5Dg0GOLbgT5Hju+aGYItLF3f8BM5Dh2GtAj0N3I8WByctTOE1oyiO0SOY/QN8UygP5HjtgDMmol8b79IROQ4Rt8Ai8A3iBw3twCzOyuy1dMPExA5Dh0GWAS+QeS4XQj0jw225Op/J0SOQwPyBABFyBOI+TON1sb/I4JGSosAkeNARGkRABChCADKUQQA5YgcB5RJfzrAR4SAInxECCCDIgAoRxEAlKMIAMpRBADlBlgEsnl+SQf1d6Mf57D6dR5g+DATAJSjCADKDb4INFxEeLB1/nEQP/47L0wkGQ+enbuH/dFrtIsuDxE1Di0GXAS8iHCzBT8O0iYpKB3/vXlxUYpeAECyvyEr512HE/SLjSoPw0Y7RZenX4uocYyyAReBZER4EOm97UeIR7Lx32HMWM1d1dP9BSmVvFzB52Up2l8iigMDOkWXEzUOXYZsTcCGirqnGXnx334acLt4cDPbMIM6+3sDnaLLiRqHHkNWBBqys91uAObFf/vHtosHN1f8zXF5kFlv6BRdTtQ49Bj8mkA60nt+JrhnT3Lx3959e/LYdDz4rtTr3iguLsiW/fmCuBB0ii4nahy6DH5NYLwWr8IHi3Ftgv5KVbcY2ObYZDx4UWrxHb1TqoYLj6bfrid2ii4nahyakCcAKEKeAIAMigCgHEUAUI4iAChHEQCUI3IcUMT/xC4TOT47O+u6AGjAR4QAAhQBQDmKAKAcRQBQjiIAKEcRAJSjCADKUQQA5SgCgGoi/wdkbphwSaHvSAAAAABJRU5ErkJggg==;" vertex="1" parent="1">
          <mxGeometry x="80" y="510" width="257" height="126" as="geometry" />
        </mxCell>
        <mxCell id="ChzIYTqEQV41GQ-VPb2i-5" value="" style="shape=image;verticalLabelPosition=bottom;labelBackgroundColor=default;verticalAlign=top;aspect=fixed;imageAspect=0;image=data:image/png,iVBORw0KGgoAAAANSUhEUgAAAQIAAABfCAYAAAADKMnNAAAAAXNSR0IArs4c6QAAAARnQU1BAACxjwv8YQUAAAAJcEhZcwAAEnQAABJ0Ad5mH3gAAAaNSURBVHhe7d09bBNJHIfhv09QXQHV1ackBglRpQjSuaJIkAOFQQqtLYTiS0PcpIhEd0gpoLApiJwqKSjAcOcGLJKCCqRLEVFwSBATaBAttDS+Ge+s98NeO/7Ca+/7SCt7Z9c7m2J+OzO2JrGbN2/WBECk1YPg3r17ZhdAFP1iXgFEGEEAgCAAQBAAUAgCAAQBgDEJgqPNBTl9+rTacrJnygAMTucgONqUhXoj9G05miQwKdoEwZFsLqgGP7su+6YEwGQKDIK93Kys2wmQKcm3b9+c7WBD5swhAOOvdRCo4cDdbfNeh0B+3uwYUyuy6y/by3mHDgubqk9hM70Le0jhObd53L+Xs4+pTV3noylv0rbOPcmZ8oXNTeu95zgAW+sg+Pi+MRzIXPY1+Bbqk3lLdnIY++sy26rhbS/5zt2WJdd5OgQ8h9V1lhpdE0c3de6vr6taAARpGQRH1Xfm3ZycnbbeOTP39rYgm7rFqd7Dn6ahZkr28KEkGV2gGub9pjnFjJTq5xzIhj2+2H9vPfX9PRH/ebZu65zbkAN9zu6KTJkiAI42k4XavrwP7Jcbrt7D9pIdEkuNJ/C7qu/5nLksVh9jSi5d9bXwxrXmZOOW3RNpd97x6py7eokAANpoGQRTM+fMO9XQnlmP16mVXevJW6o/dwFMkNY9gvlbTndcjekX6mOAANNnG98gON10Z9td6eVZvC//vLDr3JP7/jmCodQJRFfA0GBKVnbNmFvZX5813W+1+SfoplZkzZzodNPN1u0svSuAnDqdLn/DIOsE0G6OYF7y6ul60DRTZ8mUdsV+8M7ng8/rjg4g3+RgptTy2oOrEwBLlQHo9K0BgCho9AjK5bIpAhAlqVTKGwS6AMDkO3XqVP11Z2endRDYJwzC9+/fB3o9AP1zt0s7CJgjAEAQACAIACgEAYDgINATCt1sAMZX1z2Cz58/y8uXLxub3h8PFcnGElKomt2+6evFJFsxu00GXR8wPF0FwadPn+TJk6wcHl5tbHpfl0dPUoq1mhSTZhcYY10FwZcvX+TEiX9lbU3k4UOpv+p9XQ5gfHUVBCdPnpRa7Vf58UPkzRupv+p9Xd6PSjYmMdXN1luiUPB1qatSSNjH3eWm610pSMJ81t9N9173gym1HfO6iYI6s5Xmrn/7+oDw6ioILly4IPF4UR48+K2+r1/1vi7vVbWQkMW3eTlU3eya2nbksWyZY1olG5fc+ef1Y7XD6/I47W6YryV3R2RHH3u+LFuLWdU8LQO77qtVmTGl7XSqDwizricLr1y5Ik+fnjF7/arI3ZxIfsdpbDOrt2XZvNfHy1t/SH7NDMRnLotqsvKs0WLVMfuzyZT63Fv5UD82wOseS6f6gHDrOgjcXrz4XS5evGj2enVezrRtcerpHLe73Oop/toUdzSs6wbpVB8QXn0FQTr9nzx69Mjs9cp+igdRT+dDq7ttba9k9VgNbljXDdKpPiC8egqCa9euiV7U6OvXv+TGjRumtBdJSS2rJ/NdZ5avkl10ja2bjx/PsK4bpFN9QLj1FAS68U9P/91nCFiSxUPJv100XfSYlFPPPWPrZFHtbznHg2fxvYZ13SCd6gPCLHzrEVQLkoi/k9u1onrOAhg0d7sM6XoEVSmkc/J6ORWiELB+StzoOZgt+KfFwPgZeRC4f4RTn73X3+2H6ne71k+JnUlFa+OnxZgkIw+CZNHXyGhhwE8XsqEBgFEgCACwnDkQRf5vDVjOHIiYMfj6EMAoEAQACAIABAEAhSAAEKUgYHlxIAg9AgAEAYCQBMFYL2ceVH8l26jbeyzgc67zvX9H0H0CgzPyIBjv5cyD6leNt3yuUbf/3po/pxp5OdXy3Pb3CQzGiINg3JczD6p/RlaLrs97jmn+z7nuxfd3tL9PYDBCMDSYlOXMvXSPxO7qx2L9LGQ63PsEtBAEQadlwNUTcSyWM3dR4/344+vO0KDWz0KmQ7xPwBhxEEzKcubtVQt3euwR/Nz7RHSNvEcwKcuZeyTXJC85iZtrp9XIvtcewVDvEzBYzhyIGJYz74n+3t88jV2b/zcLwDgbeRCwnDkweiGYI/A1MloY8NOFbGgAYBQIAgAsZw5EjfubvJbLmafTaXMYQBSwnDmABoIAAEEAgCAAoBAEAAgCAAQBAIUgAEAQACAIACgEAQCCAABBAEAhCAAQBAAIAgAKQQCAIABAEABQCAIABAEAggCA4lnOHED0eP6vAYCoEvkf2D1kKlt23egAAAAASUVORK5CYII=;" vertex="1" parent="1">
          <mxGeometry x="569" y="600" width="258" height="95" as="geometry" />
        </mxCell>
        <mxCell id="ChzIYTqEQV41GQ-VPb2i-6" value="" style="shape=image;verticalLabelPosition=bottom;labelBackgroundColor=default;verticalAlign=top;aspect=fixed;imageAspect=0;image=data:image/png,iVBORw0KGgoAAAANSUhEUgAAAQEAAADDCAYAAACCu6T2AAAAAXNSR0IArs4c6QAAAARnQU1BAACxjwv8YQUAAAAJcEhZcwAAEnQAABJ0Ad5mH3gAAA3QSURBVHhe7d0/bBtHFsfxp0NSXZFUVx9syQEEVS4cwKpSyAfJKZQAdisjCKy4ObFRYcDdCXCRFNQV55MrqUgRObmosQXHRSoZOBdGCp2AmIqTJkjrtGl4M+Qsd0juXy7FHep9P8bCWnK5OyQ0b2eW5E8zn376aVsAqNUpAl988YVbBaDNn9z/AJSiCADKUQQA5SgCgHIUAUA5igCgHEXgDD1rvCvvvmuWaw/ktbsNCE1+EXjW6P4i+0vjmbszJK/lwbWBdgbdXiAMGUXAdaobu27ds3vDdK6GTE3Xsu0NpRC8fiDXOsVpil4/nGupReBZ47LcfdH9+cr9l/LmzZvu8uhW90bZlRuhDnNvPXLtfSn3r7jbdh8H0eleP/1W3MsKBCG5CJiz1efRAMB0qO/uXHArxlJTenXgxbfytFMFnknDDb2vPYjLQuqceHCKkXe/WUY7kV+Q2Xn346CR21DyufZ0R1aXo8pqi2jm9sBkJBeBn37sna1uXV9yP8WWrveqgPz4k/uxoNcPrg1PMV7clctRZ7CdL2kKMpJn8rhXzK5L9Ewm2wYgbIlF4PXpifvpirx30f3ou/ieuafr5LTEecyMMD5zZ8Jbj9z04s0j6ZQU0wn/ac608bFvyaNoCmKW5nAtSte5ZmHPzDfM+dYy+4p2MKk2DLkgd757Iy978xO37+/umHuA+iQWgQu9MXTKmd4bKczPlvgV9h63e8MNn3sdtVtQ4mO74bJZql3TuyL3XzZ7o4B62gCEK3k64J3pdx8P//Y/642xU0YKVSw14zOzYzurP//O5S4Mdq9dvJC7l0teiR9HG4ApkVwELtyRzagHmKF13y+/mS/3psu3NsW/Zmi9+Papu9DlzccjXnGJh+LxEl+AXJJm57b46n683+KWmlFHNmf06FQ+xjZkPtdcJ1JmJgWcleQiYMQdyPyy373shs1miSrAlfvysjdJXpL4WuFduTwwxO7xiks8FHeLuyjXuWjXu917m/Kjv40wd16Sv0c92BSzTh2o3IaCzzWFP9W6ezk+JlCX1CIQnQnjC1kDTAf4zBsh+EXDsp8t6L2V6FlqZuwzhd1X39uUJVy48+/emXz3xjWxTa7ahqLPNZH/FisQgBHixez75PGZzw6pq101B1CnjJFAGjNC8E5lk7tgFn9IZ2jh0j0wst5I4ODgwN0EQJO+IrC6uupuBnCevfPOO53/9/b2hotAdOc4/P7772PdH4Dq/H5pi8AI1wQAnCcUAUA5igCgHEUAUC61CNiLB2UWANOp9Ejgl19+ke+//7632HXkOZT1mUXZPnWruez2M7J+6FaHlN0fkK5UEfj555/l66/XpdX6qLfYdXs7iirSgZdlp92WnWW3CpyhUkXg119/lbfe+q9sbop8+aV0/rfr9nYA06lUEXj77bel3f6z/PGHyA8/SOd/u25vr+JwfUZmzPDXLovb296ZcvCsObh+KtuL0WMHzq6H6719zsysm0emcfs83JZFu+3ittmrVXbfeW01WvYYK/JQnktjzjw2dbw//Nj+1+iVuxWorlQReP/992Vubkf+9a+/dNbt/3bd3j6q0+1FWTluSssMf9tm2ZN900mKOVyfk8bCk87j2q2bsr8WdWDTiVZEnrh9tts7ZoCdxXTKLZE9u+3RhsyaW8a3b8/chhy1n8htuSrNlnlswfF+ldcIyFP6wuCHH34o33xzya1VdSifN0Sae92OZ81u3DOdpIhDOXhoOtOm60iz18V0VXncO3seyyv/LJzJ7Mdrw3j3XVWV1wjIV7oI+J4+/at88MEHbm1UC3Ip7n0luWF1Z5hsztzP3c2dC2v35MTdl36VPctZ7rusKq8RkK1SEVhb+5989dVXbm1UVc6qbljdG5ofyUavs3SvsLfN8FtWBubmhZzlvsua5MgD2oxUBD7++GOxYUS//fYP+eSTT9yto1iW1dvmjPt5fDo9NBPueL47J/NXn8u+G4efbm959w0/Nll3Hyctt1rIKPvOamsVea8RUM1IRcB2/IsX/1OxAHQt77Skebziht0zcrBqL5xFZmXj3m153pjr3LdmZub+XHh5x2z7MH5sfGXfXl13t5mh/P7NVun33MvvO7utsWXZbErOuwP9sl8joJoA8wRsJ9uS+ZY//AYwLn6/VJYn4J/B42UyF/bShNgmaKOoCEQX8/qXej+aG2KboE2ARcB2DKYCwKQoGgkASEIRAJQjchxQyH93gMhxQBnFbxECSEIRAJSjCADKUQQA5SgCgHIUAff5/fTP69v7J5EZANSDIuA+v8/n9aEVRQBQLogiEETkuPdY4r2hSe1FIIzI8Rjx3tCm5iIQSuR4hHhv6BPAdCC0yHHivaFLAEUgtMhx4r2hS81FILTIceK9oU/tI4HQIseJ94Y2RI4DyhA5PrAQ7w3tFBUB4r2BJAEWASLHgUlSNBIAkIQiAChH5DigkP/uAJHjgDJEjgPoQxEAlKMIAMpRBADlKAKAckqLQPd7BMSMA2qLADHjQITpAKBczUVgcNg9sJ4aG54WNe4ef7gti/a+XsjIoOHhPjHj0CrgkYDpqCmx4elR49ZzaWyJ7Nn7juLU4CzEjEOzwKcDSaGfeVHj5j4vMjwfMePQLeAikBUbnhY1PipixqFX4COBtNjwrKjxURAzDr1qLgJZkeI+Pza8aNR4UcSMQ7eai0BWpLi9gh8P+f3Y8PSo8dEQMw7NyBMAlFGWJ+CPJuKFmHEgds6LADHjQJ5zXgQA5KEIAMpRBADliBwHFPLfHeAtQkAZIscB9KEIAMpRBADlKAKAchQBQDmKAKAcRSDVcBhpujLbAmGhCADKBVEE+uO+t72z6uAZdnA9LXrcSI0rTzC47amNLLfpQi7LMPrucd927ivJidvmtLtM24AzVnsRqBL3nR49bjpdSlz5sIRtZzfkqG3ThVyWYee7x6bgHMz32tl+clserpgOnLhtljJtA85ezUWgStx3XvR4mfDQItvOysaOF2W+vGraOWpAKcGmCEcA04Eqcd9p0eNZceWDim9rRy3xMH7UMNIybQPOXgBFoMpZMSt6PC2uPEmBbc08fm7/Zjwd6EwBRlWmbcDZqrkI5MV9Z0WSF40e9+PK8xTfNj0e3RolSh2oR+0jgey476xIcvtYs21i9Li9Gu9uG4grH5a27bJsNiW+4r+8KU1pyJzbtr8tA9uOGKUO1CHAPAHbSbZkvlX1rwoBSKI4T8A/A8cLF+agnaIiEF2M618YikO7AIuA7axMBYBJUTQSAJCEIgAoR+Q4oJD/7gCR44AyRI4D6EMRAJSjCADKUQQA5SgCgHIUASvK/Ot8C9F+x4Dv+EMPioDNDtx6KLeftKV95MWHAUpQBKQlJ8+vyvycWwWUCaII1Bc5bveXEC3uS4oZ96S3HZgOtReBeiPH7TcWs+LCU2LGo3srtB0IRc1FIJTI8TRZMeNV2g6EI4DpQN2R49myY8artB0IQwBFIITI8RS5MeP8ERFMv5qLQGiR49nyjt/fdmA61D4SqD9yPENmzHhe24HpQOT4ONm/UDx3IvdS340A6kfk+MAyvsjxU9lea8jz26sUAEwVRUVg/JHj/geFOu9O2M8skGGOKRNgEZieyPHlnYGiQgHAFFI0EgCQhCIAKEfkOKCQ/+4AkeOAMkSOA+hDEQCUowgAylEEAOUoAoByFAFAOYoAoBxFAFAuiCJQX+S4kxor7o53uC2LQ/cZCcewz2Xo8VG7bN5A7860tg8csxeUApyN2otAvZHjVnaseCfMdEtkb+i+5GMsr5ptDtyjT1/ZGMQ4Hu3xvkR/5SS97ZZ3TP4qEs5YzUUghMjxrFhxyxwjat/QfQnHmJuXq8evOh260+lv3pQo4LB1Ylav2z3ltd07JnDGApgO1B85nh0rniblGL0OfSqP9xdkdeOSLDw8MN3ednz/uaa1HZisAIpAldjuMUSO58aKZ0k6xqxcWrDpxi05WbBRYzaV2DzHw1dy3Bc9ltV2YHJqLgLhRY73H6Oo/mPY6wLHW1ty7Ob/y6sL0lhpyMJqVAKKth04e7WPBGqPHM+JFU+XcYzlVTGDATf/N+x1AvPP/8vH6W0HJovIcUAZIscHlryLhsB5p6gIRBfx+hcCgqFdgEXAdlamAsCkKBoJAEhCEQCUI3IcUMh/d4DIcUAZIscB9KEIAMpRBADlKAKAchQBQLkpLgLd7wKE+dl/27aMDIMhec+l7P6A4qa4CHS/CxD+Z/+LdOBpeS44j5gOAMoFUQRGixyPf+7PCIz2k3bqdY8bivQuG1+e1TanZY9hk5JcnmDqeH/4sf2vySt3KzB+tReBKpHjkdmNo/jrwU9ui1xtyl7m1xBNpxyI9B5PfPmAuQ056mQWujzBguP9cbwmQFE1F4EqkeNJbIc9LhDXPRjpPa748nEY92sCZAtgOlAlcryfDSk9bu6NmEXghuydIfjo8eXjMb7XBMgTQBEY01nWzNvtEDp7GpBlDPHlYzPJkQe0q7kIVIkc9xWdBqQZJb68aNvKyntNgPGqfSRQJXI80u0k/nDeLCXH7eXjy4u1zXbqzabkvDvQL/s1AcaLyHFAGUV5Av4ZPF4mc2EvTYhtgnbnuAhEF/P6l3o/mhtim6BdgEXAdhSmAsCknOORAIAiKAKAckSOA8r479gNRY6vra25uwBoQOQ4AIoAoB1FAFCOIgAoRxEAlKMIAMpRBADlKAKAchQBQDWR/wP0mNmSMm0kYwAAAABJRU5ErkJggg==;" vertex="1" parent="1">
          <mxGeometry x="150" y="750" width="257" height="195" as="geometry" />
        </mxCell>
        <mxCell id="ChzIYTqEQV41GQ-VPb2i-7" value="" style="shape=image;verticalLabelPosition=bottom;labelBackgroundColor=default;verticalAlign=top;aspect=fixed;imageAspect=0;image=data:image/png,iVBORw0KGgoAAAANSUhEUgAAAOMAAAByCAYAAAChtGaqAAAAAXNSR0IArs4c6QAAAARnQU1BAACxjwv8YQUAAAAJcEhZcwAAEnQAABJ0Ad5mH3gAAAj3SURBVHhe7d3PThtXG8fxh/cGgnoJxBAJsYoUS4U1VIaNk1dhGVgQU5QF3iAlCktUIjULu2pF8cpsHUXxBlCDsiStWLApQmrssmkvwLkC95wzZ+zxeGwwMZ6D8/1IE8+c+WO3yi/PzJh5GKkrT58+FQDxaoTx9evXdghAHP5nXwHEjDACjiCMgCMII+AIwgg4gjACjiCMEY6yozI6tyMXdhkYBMIYdJSV0eyR3L2XFJlMyN8qlGoRGAjCGHC0XxQpPpb7L07M62O9uE8aMRgdwngk2VF1qjY6JzsX/ryabJkwp3F2LFw5guu8/e0KpXXdqMzZldHjF7Iz1zo+OppVnywo8Nn0ex3tyFzEdt0+U9Bsria1N8siyWVZVsVx+Y1azs3atcDNuqQynsiL+49FFQiPqhZzc3OmYviKP/rXVl54guu8/b2//Bc7rfv5Oo1HK8rjRtD0+wU+m36vxy/Un0HdP1M7FW618fJGTnIby+o/Nxx+4OZceppqqkPtVLZVpdBO5KGc1mwFMQN/yd/69egn0Wd3ag95o9erydvkRN79Fvyb31z/fm3Mjmnh8TFZe+8te9MbtYV2LlV9uMb7JWX71G7jfybflT+Tb1ZyahtTDGdzavucGgEG45IwJuXeXf06JolJMyDJh9+pJeXuPbU2iq5e3ilhsCKNrW3YMDXX61PcTuOmStllbwpWQVXzqufeTPKhfOdnusfPBLjkBm7gNKuQP3mVzqs6zeqkImJOcaPHj3Z+NOFLbp96xzndbgnamP+vg1+ZlYvf3oVOU32dPhPgjv6FcXahrcKZyX5fF7yJ0qhO9uuDqHFTkJWTF/e99d+/syNWxPuZu6BBl3wmwCV9rIy6wjWvLS+V3JbTqDuVdnxs7dfAsdR14a8bYmuhpd6vpVqq6heqnj1/JiBGQ/Rwsb5zet+7YaMD/X7Nu7YFbokbuGYclPD3kDaIyvIGQcTt01IZy+WyHQYwSOl0uj2MehDAzbtz54553dvb6xxGf6Pr+vz58xcfAxhmwYz4YbzF14zAcCGMgCMII+AIwgg4omsY9UXmVSYAX67nyvjhwwd5+fJlYxpW1fyMzOSrdqnpcHVGIoaBL9ZzGP/88//y88+/yA8//GJeX716ZdcMl8T6sRyvJ+wScPOufc34zz92plfVvMys5iU/MyIjI7rKVO28mlYP7Ua6AtmxkVUxo3o/szziVazwstpq1S439tGjgeOsBqpa2/HDDlcblTG4LT+jhJvScxi/+eYn+eMP/dMDIsnkA3n+/Lld04NCSWSvLvXKopTGl7z5ekVyZ2UvGCoIW5MVNaa3mZSyCkV1vyRTB3q7uqlY4WWRlOzq7dVUyZ1JWR9IHWdeDrzj1NPqffXBvfHw8TvqdAygz3oO45MnT+Tbb+3CdWU2xeQnMSFT04uyYM4GEzIxdSafdNH7dCYfs+NeNRrPSuG8ok4b92Ryq1nJwssqNY3KOJ79aEb0cTLplJnXYU1nvLmo43fS6RhAv137NPX330WePXtml/pvOmcrl552dRgSsn7sVbItczrbulzNb4nYSlnJTZtjJCampGBKpFYVlauG9uNH63YMoJ+uHcZ//xV58OCBXeovXfUWS7ZyqUlnT9/d9CvZlKpU4WUTmvnWyiipDXXqO2+PsyTq5NiIOn5HHY4B9J2qDPWVlZV6rVarF4tF8+rT852mt2/fNubDosbid1DPSEb9GUWvk7r+3+FN0/Vcxa4CbkAwI37uulZG/VPlnaZHjx415p0VuOM6MjKvTmN31VVflObNH2869q5pgQG69mnqrZBYl+NAyLpcGgKxG+4wArcIYQQcQRgBR9ADB4iJf/OTHjhAjIIZoQcO4BjCCDiCMAKOIIyAIwgj4AjCqNDvBi64nWE0rTu6PfcUocs+9LuBC2IJY+NZxMCzhMGxRi8cEyC/X46aZvJS1U/0j2flY0E/Y6if8o/ufdP6HuF9Quh3AwcMPowqYEulRakEn6RQYRg/32w8XXEg880Hfv1+ObpHjpRkv5qS3UpOpjO6L41+JCqi903be4T36YB+N4jRwMNoGkltrkvwpLC1z4xIKp2RM90MR/P75ag9FhZF2tvVRPS+iXiPq6DfDeI08DC29pTxhMcOywWZmrhalC7vfXN19LtBnAZ/mpraNaehzeu59jF9qtj1QeDEgiyavjSrUonsfRPxHoF9OsaUfjeIk6ooHXvgXJebPXB89LtB/HrugTOc6HcDN32FYQTcRBgBRxBGwBGEEXAEPXCAmNADB3AAPXAAhxFGwBGEEXAEYQQcQRgBR8QaxsjeM4Gn7oGvyeDDGOhF0+g906U/DfC1GHAYQ71oTBXMd+xPE+xHQ1Qx7AYcxqheNAvR/WlUULcmK95jTpVJKXPqiiHn7A0c3Y/mY3bcq4yqchbam98AQ8XZMGrTOVsZ9cQv5MeQG3wYo3rRRIwl1vdksWQro9/HBhhi/KA4EAN+UBxwGGEEHEEYAUcQRsARhBFwBD1wgJiE76by1QYQA77aABxGGAFHEEbAEYQRcARhBBwRQxjt7+CfyYsrjwt7HQXoJoB4xVMZ9VP9x+vSl99Ret3+OYH9Urt1OciYWSA2sZ+m6g5x4WcWg2MjzUEVnrzkZ+y4qayhnjpqs7a+OVfcD4hbvGFUQVkqLUrFPs1vHuY/XJXx883GE/4HMt98sLhQEtnT4xXJSUn2q6GeOp365ly2n7cVEKtYw1jdL8nUZuvpqu59k0k345FKZ+Tskw1VZtP+/v2ELCyKhNvidOybc8l+gAtiDWNiYkoK5daTxPDYYbkgUxNXv7qkbw5uq3hPU1O75jTUu8az14yhsXm11DVTgf45lV765kT14gHipCpIfWVlpV6r1erFYtG8fqnuxzioZzIHdt4dB5mM+mTAYAQz4ucunsqo72I69j3jfMEuADGJIYwp2dXXc/36nrEP9PeM3FVF3OK9ZgTQQBgBRxBGwBH0wAFiEGxL07EHztLSkt0EwCDQAwdwDGEEHEEYAUcQRsARhBFwBGEEHEEYAUcQRsARhBFwBGEEHNH243AABi+dTst/6mJodxST7zUAAAAASUVORK5CYII=;" vertex="1" parent="1">
          <mxGeometry x="540" y="730" width="227" height="114" as="geometry" />
        </mxCell>
        <mxCell id="ChzIYTqEQV41GQ-VPb2i-8" value="" style="shape=image;verticalLabelPosition=bottom;labelBackgroundColor=default;verticalAlign=top;aspect=fixed;imageAspect=0;image=data:image/png,iVBORw0KGgoAAAANSUhEUgAAAOIAAAD9CAYAAAChkKuZAAAAAXNSR0IArs4c6QAAAARnQU1BAACxjwv8YQUAAAAJcEhZcwAAEnQAABJ0Ad5mH3gAABBmSURBVHhe7d3NbhvXGcbxV72BBL0Eh3QBQasAMVBqGdgFpY2SwlxGWTgijAAlNwYSREuhCeAsyKCFK62kLb2INpbQGFlKLbzIpoSBmqw37QUoV8Cec+YMOUPN8Ns8L6X/D2AtDucLaB6dM7LO47WeIVBrbW1Nkv8XDb8fJ9o//lqmOhbL8xv/JxSzYUr+OQtCqFt/RPziiy/cBgDLlwri999/7zYCWC6mpoACBBFQgCACChBEQAGCCChAEAEFJgri22cP5P3330+9Hjx76z8FMK8xQXwpdRO6D79+5d8DeBdGBPGtPHvwUI7d1/fk21+u5OrKv375VtbddgCLkB/Et3+XH91AaEP4kzy+47ZG7jyWRmLDy3p62vp+/aX/xHhZj7Y9eGaibdmAR/tFuyXfRyNwvO/weZPT4fRnD4SZMlZZfhD/82+JcviJ/CEZwpQoRA+jYXPg+GEieJM7fhiPwOby5rn02nmdrGu+kq8/JIxYXblBfNt97b8a4eUPEj0+JqauZtp6z2569bX8kBgYJ/L58+gcPz2WD/wms1Ge+ynxT3YU7l9zsP355/b9K/nx7yQRqyk3iHcK/inw1Y+S9993P6zJUfPOH+QTl8Tpfb59339lZ79PTNSsY3nop6DJGW9ye/bICayO/Knp/W0fBDvtq0sqA2+fSd3MAwdh/bf8J/rKfDZ4tvzdYFgb7NP/fJz70kiNeCZ6T5PT3cGIGL/ciAmsoPwg2iDECUiMPu714dfixsL7f5Jv3eiX+Nx8lnq2/OB30VQ13ufDH21Gx0r+MKY/4q0X5E7/G8TQPc3wTApoMSKIxv2GGWme+//wk+7JJy5ld+TxT7/4MCbYZz3znOfGpzuP5W+JHT5//jf5xH89lXvfyi8NO3W1I2XGNYEVxsJgQIHRIyKApbg2Ip6enroPACxPZhB3dnbchwDerffee8/9mRvEeIdZ/frrr3OfA7jJkhnhGRFQgCACChBEQAGCCCgwNoj2gXKSF4DZzTQi/vzzz/LNN9/0X6uo29yUzWbXvxs4r25KxmbgnZopiP/61x/lL3/5q/z5z391f3733Xf+k9VRqF3IRa3g3wFhzfWM+N//+i9mYEck+8+M2Vf1/Pq2tXjjeTU1cvVHLLu9al5rVTnvNs2f0XHxvudVfx77udsyJHHe5L78XhFCmCmIv/3tD/LPf9rfChC5d+8j+eqrr/wnEzLB2W1VpNPruX+z77BstplgFF/vu/f2dSZb/YDmuWyvy0nvUIovWrJxFh3nRjlzroP1TnSuzrqcjpprmn23zNWi6+6IHPntwBLNFMTPPvtMfv97/2YGXRuc/ZokJ4bdN23Z27GJjJR39qT9ZkSAjFJl252jUDuR9YPB6GfPdVkvRqNcsS5Hrztu/yzp65bFXBZYurmmpv/4h8iXX37p302ucHdDjk7Tw93wtvPTI9m4a2JWXBdpvRA/iRSzOUNBahfR6Hfgh9FSw4+I9uWG3Gzp63bF5BJYurmC+L//iXz00Uf+3RTKh27qGT2X+WfEoW12uujyU9iWitSl6LabJ7iMEav/bGlGvw0zutkRstLyI6J5jZzilp9Iox1fd1dafjOwTGN/6XvU3xHav8b4+OOP3dfDv+Btj9PzS9/nUl3bSjz+laTRuRB+aIqQkhkZOyLaHfNen376af9r3cpyGE9T3YsQQpe5pqYAFoMgAgoQREABgggoQGcNEFD8g046a4BApvrrCwDvHkEEFCCIgAIEEVCAIAIKEERAAYIIKBAsiME7a+wx1aY0N/1+m83+4uOqP1f/2NS+9vrdwXGJxY5jrwnkCBNELZ01Ry0xJzD7daQhLXnhdhssmeo02tJfvB/v26lIq7g7OK59GoVu0msCGYIEUU1nzd6+X5dYkO2KSLTbYEQs1i/thki8b+GubJQqsu2Pu7vRFnub0/TkAMOCBFFTZ82wbvNAxI+unUbJb53MrNcEwkxNNXXWDHHfELai41Ij4hjzXBOw372dR48e9a6urnrHx8fuz3kt4hyLc9Yz+bW/3O5fpV7DPKACISUzEuynpstFZw10uyVBBHQjiIACBBFQgCACCtBZAwREZw0QGJ01gDIEEVCAIAIKEERAAYIIKHBrg2hXbCRX/gMh3dogFmoX0Wp+QIFgQQzeWROfd4Y+mmp8D8CChAmils6a2AR9NHahcnRvO2Z/dxSwMEGCqKazJjZBH83g3spibg1YqCBB1NxZkyV9b10xuQQWKszUVHFnTabyEzNNje9tV8xEFlgsM2I4dNZMyp5rz/wvMB86a6btrEn8VHZtbUvk7NCcEVicWxLEORVqcpEIMpWlWDSCCChAEAEFCCKgAJ01QEB01gCB0VkDKEMQAQUIIqAAQQQUIIiAAgRxBHptsCwEcQR6bbAswYIYvLMm1VVjXpvNaPFx8ryJa2fd79hrABMKE0QtnTVxV43Zr1Npya7fLz5vf5FFzv1O1YsDjBAkiGo6a+KuGsPWYcTi88by7neqXhxghCBBVNNZ037jz5u4Xoas+7UW2YuD2y3M1FRNZ42Zjvp9+tfLknG/C+/Fwe1mvps7t66z5qzRK+3RPINw6KyxnTVF/xGgwC0JYgbbQ8NzHZS4vUEEFCGIgAIEEVCAzhogIDprgMDorAGUIYiAAgQRUIAgAgoQREABguj1V/4DARBEQIFgQQzeWWMk9zn126xrx2acP+v+gVmFCaKGzhqzj10MHF1vRyRe+Z9xrKvKSJ4/6/6BOQQJoobOmvT1ymIu52Qde+38GfcPzCNIEDV01qSv1xWTv77rx6bPn9dhA8wqzNRUQ2dN+Yk02vH1dqXlN2cdO3z+zPsH5mG+6zu3rrPGPOABIdFZYztreMCDIrckiIBuBBFQgCACChBEQAE6a4CA6KwBAqOzBlCGIAIKEERAAYIIKEAQAQXCBNGurs9arLtk9NRAC/0joq2pCLHOKNR1cSsFDuK5VP2avux+mKZUi3W5PLJr/zK6Z4ZG1v4I50LUlOamP/dm0y8stvsMrjfoqRm+D/N+6LqTdOAAswocxMHypE6jLXbRe7ofpiaHnYaU9my3zKHZewpHLZETf+5KS3ZtQvN6aq7dh3mfvG5Gjw2wSGpGxGL90m0Z7oeZ2d5+f82hrbaw8npqsu4jaZIOHGAeQYPYbR6I+NGv0yj5rdf7Z3KN6rNpvxlMR33/TV5PTfZ9pI3rwAHmETSILhhb6ZHoWj+M7axx3TIZI+TIPhszHXXbE/03eT01GfeRvG5nkg4cYB7mO7yjv7Nmit6ZTqNnnu/8G0CnFe2soXcGN9cKBXEKhZpc8ByHFXIzgwisGIIIKEAQAQXorAECorMGCIzOGkAZgggoQBABBQgioABBBBTQHcQJ6yrsio2sDhw6abAqbsSIWKhdyAW/AY4VFiaIqV4aM2Tldc84bzK7Z1ISx2d30gC6BQliupdmzEiW1T2TJ7eTBtAtSBCn6qXJ6J7Jk99JA+gW6BlxqJdmyu6ZPHmdNIB2YaamWb0003TP5MnppAHUs7/0benvrIlN0V0DKLainTUxumtw86xgEIGbhyACChBEQAGCCChAZw0QEJ01QGB01gDKEERAAYIIKEAQAQUIIqBAmCAOrcifSc456K/BKrpxIyL9NVhFwYOY7Jg5l640NxMjl+228T016f1GoL8GKyhsEE1oDtY70XKmzrqcNkVq+xvSehEFyXXb7NekcG2/CeaY5hj6a7AqggbRdsxc1ovRqFWsy9Hrjkh5RzZcbUZXXryuyJNyzn5j0F+DVRJ8alpq+JHOvlwPRlmeVFrytPpUWuvbEj/tXd9vNPprsEqCBtG2uVVafqQzr7jUu7BdkbaZSu77H7rk7TcS/TVYJWaEcVansyaJ/hqsrhXvrEmivwY3w4oHEbgZCCKgAEEEFCCIgAJ01gAB0VkDBEZnDaAMQQQUIIiAAgQRUIAgAgoQREABghiztRyj1leN+xyYQ7Ag9v8d/cT6wuS2tXjjUFtbv43Nbq+al+2wsSHxx2X11WTGJ3VMU6rFulwe2fWLdv9zqfrP+u+Tn+fdU8Z9AJMIE0TzH+xuqyIdv3zJLbg3/3EXX+/3lzSdydbYBcCX7XU56R1K0XbbnEXHuQY3c65xHTeuD6d/TE0OOw0p7dmOm0MpJ5ZXdRptOT0371OfZ0ufk/VYmFyQIPZLofx7K90xY6tr9qT9ZvSoUqpEVRp2Bf/6wWD0m6TjZviYtMGIWKxf+m3jjT4nkC9IENN9MpHhbeenR7Jx18SsuC7iyqTcVjGbMxSkdhGNfgd+GB3fcXP9mFi3eSDiR7ZOo+S3JuTeU/45gVHCTE3Lh27qGT2D+WfEoW22CtHlp7AtFalL0W0/FcloY+s/W5rRb8OMqpN03Awf467jOm6q0rHfFLaiY/sjYuLz85x7unZOYFLmu76zmp01k6LbBvrcoM6aSdFtA91uSRAB3QgioABBBBQgiIACdNYAAdFZAwRGZw2gDEEEFCCIgAIEEVCAIAIKqAhif4X7AtgVELOtjk+uyrev6/eUPLdtAEit6jivytpm0y+NAqZzM0bERJ9MoXYx++r4UqPfGtDrVKRVTIbtXJ7af//br0MsH56JbMULgE2It0TOLtKLnYFJBQtislPm1G+zo0pmF4zdHvfTpEYu/z6nT6a/PtC+4kS50Daluem3541ihZqcNEqDxcrnp9KunMhJpSVP3aayRFk0d+BSmF+hAYwTJogmLHbhrxt5ejsimavu0+J+mon7ZMw1cjtwjszQdmK3d6QhLXmRmUSTxbsb/iubw7ZUtgtS2K5IOw5n+Yk02luDRczAjIIEMd1PU5adjFX3w+J+GhOJifpkRnbg7O379YgFMbmSjEobx56jtF40X9k6jEupm6mqXX1/eXRqtlj2+FLqOsAsggQx3U/TFfPfe2SCfpqxfTJebgfOpOyIWhc3CrppaaIDJxqJ/X7AAoSZmvopXfT8tmsmh94E/TQuYKP6ZKIt5ho5HTijXMbXNi/72OdX8sfT0lhqegosAL/0DQTCL30DyhBEQAGCCChAEAEFCCKgAJ01QEDxT0356wsgEP76AlCGIAIKEERAAYIIKEAQAQVuaRC7gxX6/VdVmll9N4kV/8C7ckuD6P+te7tCv7QnZ26d4aHU4r6bRAcOsAzBgpjskxnUyWR0zAyNSJk9NjY4/rh432QnzsSRctdqpjtw/EfWTOcEJhAmiCY4u61KvzHNLdi1K+LzOmZyxD02xRct2fCr9t2IZs51sO5X1HfW5XSqqeV2bgfO7OcERgsSxK4Nzn66enBkx0yOuMemUDuR9YPBSGXPdVkvRqOXGd2O8kpppvAuzgnEggRxuE/Gyu2YmaDHpv/MZ0aqAz+MlhIdM70FVay9i3MCVpip6VCfjMtOXsfMBD02/WdLM1JtmFHVjpCVlh+9zGvcFPeajA6cuc8JjGK+uzuPHj3qXV1d9Y6Pj92f81rEORbnrGfya3+53b9KvYZ5QAVCSmYk2E9Nl2tQShy9onY2QItbEkRAN4IIKEAQAQUIIqAAnTVAIMkqmcwg7u7uug8BLAdTU0ABgggoQBABBQgioABBBBQgiIACBBFQIPPvEQEsk8j/Aeeooe2ytkAWAAAAAElFTkSuQmCC;" vertex="1" parent="1">
          <mxGeometry x="50" y="10" width="226" height="253" as="geometry" />
        </mxCell>
        <mxCell id="ChzIYTqEQV41GQ-VPb2i-9" value="" style="shape=image;verticalLabelPosition=bottom;labelBackgroundColor=default;verticalAlign=top;aspect=fixed;imageAspect=0;image=data:image/png,iVBORw0KGgoAAAANSUhEUgAAAOAAAAB0CAYAAACc2j60AAAAAXNSR0IArs4c6QAAAARnQU1BAACxjwv8YQUAAAAJcEhZcwAAEnQAABJ0Ad5mH3gAAAnASURBVHhe7d1PT9vYGgbwN/cLFM1HoEkrRayQGmlgWUEV2NBewbKwqMigSpdskIrKEg2V2kWoZkRhlW5hQTY0alGXdEYs2AxCapOymfkA9BNw3/PH9nGwE9sEn5h5fpKV5PjYTio/nOOA3+YuGQGAFblnz54hgACWyAC+efNGvwSANP1HPwKABQgggEUIIIBFCCCARQgggEUIIIBFAQE8pOrQEA3pZXLrXLdrh1V33dBQlXvfHudbk8ZnC/n8AH3UcwQ83v9I5il4eFDXz24T9UNndPVYvwZIR5cAlqhU4ofjffroJvCQZP54hVh1O5zT1uQsqR8rJdo4uaCLC72cbFBRtgPcjC4BLFJRnn3HtO8k8PBAnqgltcIgTmL/1M03PT3fokmnzX3OS9Xp0WN7yZwaT9LWobFP3UM4rDp9dL9eM8jzj7QvBz4Rvk+0NCxbleElqhkN/n3z4r5/5kzNJ7f0jMH7TKqb+Vp/Ft23c7/mtDf254FM6ToFnZ5ekI/HX7/LRzX9LNHj6fvydXd1mr0SojN6/csqR1qrz+qTM4i5vTlKCce0OmvsR1In+KzXiXG/0R4n7fevaj+lx/TIDJ9P0L4Zv38vcNHVZ73P8p2vO6/sV0r4eSBTul8DTkyTjGD9gIPgTD/5RL0rGk3DtPTJmLpd7KntOHBt38lyTMUVc72jx/aHb0ldnhlTxD3/Hrw+C7Sn96O6GCN4gPP2mX7WRdDxeXoqp+HHq/Q29IdIiIU9tY9PS+T9U3rv+5MYdRN+HsiWHl/CTJAaBOt0sNXmOIj8PeK4dPJ/czo0ZI5WpgWanhCPd+m+vog8Uwnrur0bEnOUuntfBeAKMXKq/QSPLH7DeT2d9l3r+gUef/gRPU54Ibyg/hGk4aUV/cPGe9/+WUG8zwPZ0iOAYhDUp8eqmPLx9DNgnna+9VoGprRx4h8dIuq1vReSr6Qmw7zNx31+P0G8EcNZ5IgSxhnleW+rox1TZr5erfJ8L+j45rXjfXNG4PRx1/cyQTX9Pp1Bvf7anNbG/DyQKT0D6J2grOt1Ep97q6NqBPtlX7fEE7q9+x680eDKrwwC+sil5zUaB8CdznZsO7oqR32a+B9tyJ8Ixnpep/Kn/03cEVn3GeXPEOGnkPklizvCFfM0nPjzQJb0DqA7DRXnWtD0U0yj3ukTVODrpHcrsb6+7709h8Q3KvKocGWUFSPJibGfGCZqPLJ0XpcKzogvrlED9i2u5fg6Tv6bDC/RO6PDwt47eqyfx1LaoJOamKJe4/NAZmT0hlzxDeGo+pJCnLBOCAAyJsIIOAjUV/LuNGxIh48trEQJX+eXPHrBdA4sc0fARqOhmwAgLb4AzszM6GYAuEl37tyRj1cC6KxI6sePH9feB8BtZmYkI9eAALcTAghgEQIIYBECCGBRaADFhWKUBQCSizUCfv78mV6+fOkuWdTeHKfxzbZ+5WlWximgGeBGxQrgX3/9l3777Xf69dff5eOrV6/0muzILx/R0XJevwKwK9E14N9/6ycJiBEol8vJpdK82pZzGpsV30jljlCivcJLrkLN9iY/qu2cvs2K3o9YL1s6GPs1++LvgMCGWAH86ae39Oef4rf4RKXSA3rx4oVeExEHZn53jlqXlyT+W8LtMrdxIApna/K1WD7QlBvMMF9Oi/T+cpsKB7s08kFtJ0c13td6saX21SpSo9uckvtO8dHUcWeIdnQ7QIpiBfDp06f088/6RQJtEZi1ZTIngO1vp7Q4I5KolGcW6fRbl+CwsblpuY/88nsqrnujndjXl2pBjWqFKu2ctWT/IP7jlokPC5C6RFPQP/4gev78uX4VXf7eCO00/MNbZ1uzsUMj9zhehSLR7gHpySJxc4A8LR+p0W5dD5tjNT0CikUOscH8x20T5xEgdYkC+M8/RA8ePNCvYihvyymmuu7S14AdbWJaKHOTn6Y5qlJBtvMVWsAI5V478mg3wqOZGBHndvUIyEvXqWx5hWqnznHnaVc3A6Qp9I+xu/2OT/w64uHDh/J55x9ei+0G54+xm1TJTRmXd2NUax0RvgQFm8yMhI6AokPY8uTJE/f5YCvTtjMdlQvCB4Ml0RQUAPoDAQSwCAEEsAgBBLAINWEALHC+wERNGICURfo1BADcPAQQwCIEEMAiBBDAotAAigvFKAsAJBdrBBzUmjCo8wJZFSuAg1oTBnVeIKsSXQMmrglj1GMR3BEqSm0Xsa1TC0b2MBj7RZ0XyJJYAbx2TZgQslRFhNouTi2Y0PvcUecFMiZWAK9bEyZM1NouTi2YMKjzAlmTaAqatCZMeJ2X5LVdTKjzAlmTKICJa8KE1Hm5Vm0XE+q8QMZksCYM6rxAtpkZCR0BRYewxW5NGNR5gdsj0RQUAPoDAQSwCAEEsAgBBLAINWEALHC+wERNGICURfo1BADcPAQQwCIEEMAiBBDAIgQQwKJ/ZQC9u+a9O/ABbPj3BdB317y+A1+UxIh6z1OcvgA9pB5A994/4z4/sy3nNBp1XgS3foxod2rDRKkl06lQpLGdhrGuSZVClb7siPsIxTbidqeOfbjH5DZfX4DrSTeAHJj53Tlq6dFH3ujOJ3fhbM0dkT7w+NRrgHFqwxQi1pLxyS/TkbjzXoRJHqhM260ajS2KUVHUm/Fud2rVTsm5wV4dU+zX7AtwPakGUBZfWlv21XXx13HhOMws0um37tdlTm2YqLVkrhAhFAErrnsjrssbAQvVL7qtdz0agCRSDaC/ZovS2dZs7NDIPT7VQ+vHmK5XS0Ycm9Ouj6G0N9eJ9Kjaqo3pVoCbke4UtLwtp5jq+kpfA3a0iS9IZG5C6seYEtWS4Wmqsz43dUq19zwii2PJWjIVaokfCFNqvTkCuoy+QbsHiEX8MfbFxcVlvV6Xj9fVj330z4dLzu0lf0y9jF3W+AIUwCYzI6l/C5ou1I+BwXbLAwgw2BBAAIsQQACLEEAAi1ATBsAC1IQBsAQ1YQAGBAIIYBECCGARAghgEQIIYBECGIN7Vz5AnyCAABalHkDrNWHYlT6y0NImbY7r9vFN9yZds29DtwH0S7oBHISaMGF9dnaJd8rtLarRLh3osHsV1Ga4j+oK0C+pBnAQasKE9llc0/cK5ml6jkg0+99bmfitAfRVqgEclJowUevG+N9bmziPAH2V7hR0AGrCRKob4yivUE3WfxF953liCtBnqAkDkC7UhAEYELc8gACDDQEEsAgBBLAIAQSwCDVhAFJmlmzxBXB+fl43A0AaMAUFsAgBBLAIAQSwCAEEsAgBBLAIAQSwCAEEsAgBBLAIAQSwyPeXMACQLjeAAJA+GUD9HABSRfR/XCStYBdtf2kAAAAASUVORK5CYII=;" vertex="1" parent="1">
          <mxGeometry x="20" y="320" width="224" height="116" as="geometry" />
        </mxCell>
        <mxCell id="ChzIYTqEQV41GQ-VPb2i-10" value="" style="shape=image;verticalLabelPosition=bottom;labelBackgroundColor=default;verticalAlign=top;aspect=fixed;imageAspect=0;image=data:image/png,iVBORw0KGgoAAAANSUhEUgAAAOEAAABwCAYAAADoiRecAAAAAXNSR0IArs4c6QAAAARnQU1BAACxjwv8YQUAAAAJcEhZcwAAEnQAABJ0Ad5mH3gAAAfbSURBVHhe7d1PTxNbGMfxp/cNaHwJ2GpCWJFIIiwN3IAb9AaW4sLAJSbSjYlGl0RNrotiNFxclW1Z0A0SJS5Rw8KNhETay0ZfAL6C3nPOnJlO22ktpZ3Tge8nmdvp/HXBr8+Zaee5qXv37lVevnwpANz4w74CcIQQAo4RQsAxQgg4RggBxwgh4FiTEB7J6sRFuXgxPGVlx65tbUeyZvsJWT2yixq0sw1wPkSEUAdkWB7v2bcJcLQ6YT4oJkg0EqgxhDtbkjczd2Xj+FiO7bRx1yzsknHJmeN+kMUBu6hjR/J+M0GfGECdFteEefknVFnGczkVHWUn6w1PJ1bVn79WHbpmG8ar/rCzfn30cHQnW902aqhau15Xvh117mrV3ns8rJa3O2wG+kNjCMcfyPMRb9b7o1Z/8I3pasvm3zO2qnryM80C4gV5Jryx7MnjYT+IUeuBsyGiEg7I4gc1VAyPP/MzHVQYVZ5ufbXD2Q01uNXyshV1kJ1XtppVh8De6fdk871KYbB+RJ5/9dbr6cPiuPq3fg0+NEae6/PZig0kRPPh6HjO+2MPwtgkQE2NyK0//Qu+y3LVBqW1vMzYoWa46h2VD7yZkVsSHBI4IyJuzGRr7zKGhqcH5dDyve/yn349ei/R90X25LvZQGm6Tb3am0FetRuQgfSgt3pvU3Rh9KjrwfqLRiCBIithcC1oJv/Gh61sl6+qOc1WreFNvSpSfsYeY/ixHpzq8aI8iBorjt8Mhqt+JTSTf/Mn+CDQ14n++hlRZ1YGJMgoN2aQQI0hDEIWpiuU/TphYFH+9UujcnfjX7ll52up67eN56FjqWN8WFSRiaK/sqhe2zXS16mN6wfT3tHGH4TPAySLm4d6j1ZlwlRHHW5upOB8a35jpifsd4rB8PSqXDbLgfMrqITFYtEuAhCnmhBOT0/bxQB66cKFC+Z1fX29MYT+yk79+vXr1McAzrJwRnQIY74mBFCPEAKOEULAMUIIONY0hPrisZ0JwOmcqBJ+/PhRnjx5Ekw9U16RsYVt+6a58sqYjK2U7buq7YUxiVgM9KUThfDbt7/k9es38uzZG/P64sULu8aN9NKu7C6l7TsgmTq6Jvzxw86clK5wqZSk1GQq2PZCTSWrrWCHsjLmbZsaW5HIwhbaf3vBbptaEH77gyQ5UQgvXXolX77ob/tFRkauyaNHj+ya9pS3CjL0riKVSuX3FextQWTd27Y0W5C5VuNLFcYpeWe2rVSm1b52OZAAJwrhnTt35Pp1+6YD6aV1GVz2qtVvr/jmn4qf0/SVIW+mifLhvsxPT9p3kzI9b2eBBOhoOPr5s8j9+/ftu5NIy9KuqlalQVnWN14ygyKFLTvU3JZiuILtHwZD0G21YuhK88qpQ/q26Me6LCqTQGJ0FMKfP0WuXbtm37VP3800122ZrAzpypW+KbOSlYy5llNXcjUVTA1BzfKUGWqu+YUuyuRDye1PecdOzak9geRo+gPuVt8B6q8qbty4Yebrf6yt9+vND7i3ZSE1FbrcG5VcaTcYsgJJEc5Iyx9w642aTbdv3w7m4zMpa+bGiz8RQJwNHQ1HAXQPIQQcI4SAY4QQcIweM4AD/k1NeswADrT9FQWAeBBCwDFCCDhGCAHHCCHgWH+GsM0eM8BZQCUEHIs3hN3uMWMq5krEdvqxJ7vMf4q/Zlt9nnJ1v1DVDfeqoRYjDrGGsCc9ZoLtSpKTgmyZzaqPPZVy+xI8dO9vW5qVQmauut9+0Quc+lBYHiyZ/fTT/8VWfW2ALok1hD3pMRNsl5absyIHJT1frYSZ7Ce9wONvm74iQ6OzctPud2VoXw5V3nSvmk/ZjFcJM1l56x0M6KmYrwl702OmXnllWcRW3FJu1C5tz2jOVkI9teypAXRHvMPRXvWYqWMaP01FVMLf0JV6tmAroZq4QYtY6B9wHx8fV/L5vHk9rW4cI9q7ispoRf2T7TRayZXsKiBBwhnRuYt5OHoa9JjB2ZSgEAJnEyEEHCOEgGOEEHCMHjOAA/SYARyixwzQZwgh4BghBBwjhIBjhBBwrD9D2GaPGf1URvjJfCCJEl0J00u7v39CH+hz8Yaw2z1m/P076B+zUHMuwJ1YQ9iTHjO+NvrH6IeDvcegptX2Zi/AuVhD2JMeM742+sfM66f5jUmZrnmKH3An5mvCeHrMRDEtL4K2a2VRmQT6QrzD0Zh6zESafKiGplPe+VNz6uhAnzifPWb0sebVf4H4nd8eM6E7s6nUlMi7NXVEwL0EhfCU0kuyGwoxLUXRL85PCIE+RQgBxwgh4Bg9ZgAH6DEDOESPGaDPEELAMUIIOEYIAccIIeBYf4awzR4z9WqfzAeSgUoIOBZvCLvdY0YJ940p2mVaeLmpqfXnNovs841q4v9PD1diDWHXe8w06xujli8PlrzlpUEpqn0bzq1COVeYlZLZl6cq4E6sIex2j5lmfWP08k/ZjFflMll5e1BqOLcJ5dMlOV3TDOD0Yr4m7G6PmVZ9Y0ZzthLqyZS52nPX7gu4E+9wtNs9Zpr0jdFVb7ZgK6GadN4bzj25po7q78s1IRw6nz1mAHfOb48ZoE8lKITA2UQIAccIIeAYIQQco8cMELNw+5eGHjNzc3N2FYA40GMG6AOEEHCMEAKOEULAMUIIOEYIAccIIeAYIQQcI4SAYzW/mAEQN5H/Ab60c47xeHUOAAAAAElFTkSuQmCC;" vertex="1" parent="1">
          <mxGeometry x="-240" y="40" width="225" height="112" as="geometry" />
        </mxCell>
        <mxCell id="ChzIYTqEQV41GQ-VPb2i-13" value="" style="edgeStyle=entityRelationEdgeStyle;endArrow=ERone;startArrow=ERzeroToMany;endFill=0;startFill=0;exitX=1.014;exitY=0.096;exitDx=0;exitDy=0;exitPerimeter=0;entryX=0.007;entryY=0.443;entryDx=0;entryDy=0;entryPerimeter=0;" edge="1" parent="1" source="ChzIYTqEQV41GQ-VPb2i-1" target="ChzIYTqEQV41GQ-VPb2i-9">
          <mxGeometry width="100" height="100" relative="1" as="geometry">
            <mxPoint x="110" y="380" as="sourcePoint" />
            <mxPoint x="230" y="470" as="targetPoint" />
          </mxGeometry>
        </mxCell>
        <mxCell id="ChzIYTqEQV41GQ-VPb2i-14" value="" style="edgeStyle=entityRelationEdgeStyle;endArrow=ERone;startArrow=ERzeroToMany;endFill=0;startFill=0;exitX=1.02;exitY=0.124;exitDx=0;exitDy=0;exitPerimeter=0;rounded=1;entryX=1;entryY=0.25;entryDx=0;entryDy=0;" edge="1" parent="1" source="ChzIYTqEQV41GQ-VPb2i-8" target="ChzIYTqEQV41GQ-VPb2i-9">
          <mxGeometry width="100" height="100" relative="1" as="geometry">
            <mxPoint x="32" y="324" as="sourcePoint" />
            <mxPoint x="380" y="260" as="targetPoint" />
          </mxGeometry>
        </mxCell>
      </root>
    </mxGraphModel>
  </diagram>
</mxfile>
